<mxfile host="app.diagrams.net" modified="2021-10-30T06:16:27.718Z" agent="5.0 (Macintosh; Intel Mac OS X 10_15_7) AppleWebKit/537.36 (KHTML, like Gecko) Chrome/94.0.4606.81 Safari/537.36" etag="hhDPg-gUIQbW1t4Gi-e4" version="15.5.8" type="github">
  <diagram id="H9as-gvejgTcxyNufWSV" name="Page-1">
    <mxGraphModel dx="1831" dy="1926" grid="1" gridSize="10" guides="1" tooltips="1" connect="1" arrows="1" fold="1" page="1" pageScale="1" pageWidth="1600" pageHeight="1200" math="0" shadow="0">
      <root>
        <mxCell id="0" />
        <mxCell id="1" parent="0" />
        <mxCell id="cRFOei0-KnDXG4o8W320-1" value="&lt;p style=&quot;margin: 4px 0px 0px ; text-align: center&quot;&gt;&lt;b&gt;Statistics&lt;/b&gt;&lt;/p&gt;&lt;p style=&quot;margin: 4px 0px 0px ; text-align: center&quot;&gt;/statistics&lt;/p&gt;&lt;hr size=&quot;1&quot;&gt;&lt;p style=&quot;text-align: justify ; margin: 0px 0px 0px 4px&quot;&gt;&amp;lt;Header /&amp;gt;&lt;br&gt;&lt;/p&gt;&lt;p style=&quot;text-align: justify ; margin: 0px 0px 0px 4px&quot;&gt;&lt;br&gt;&lt;/p&gt;&lt;p style=&quot;text-align: justify ; margin: 0px 0px 0px 4px&quot;&gt;h1: Statistics Page&lt;/p&gt;&lt;p style=&quot;text-align: justify ; margin: 0px 0px 0px 4px&quot;&gt;&amp;lt;StatsDaily /&amp;gt;&lt;/p&gt;&lt;p style=&quot;text-align: justify ; margin: 0px 0px 0px 4px&quot;&gt;&amp;lt;StatsWeekly /&amp;gt;&lt;/p&gt;&lt;p style=&quot;text-align: justify ; margin: 0px 0px 0px 4px&quot;&gt;&amp;lt;StatsMonthly /&amp;gt;&lt;/p&gt;&lt;p style=&quot;text-align: justify ; margin: 0px 0px 0px 4px&quot;&gt;button: daily-record-button&lt;/p&gt;&lt;p style=&quot;text-align: justify ; margin: 0px 0px 0px 4px&quot;&gt;&lt;span style=&quot;text-align: left&quot;&gt;button:&amp;nbsp;&lt;/span&gt;&lt;span style=&quot;text-align: left&quot;&gt;weekly-record-button&amp;nbsp;&lt;/span&gt;&lt;/p&gt;&lt;span style=&quot;text-align: left&quot;&gt;&lt;div style=&quot;text-align: justify&quot;&gt;&lt;span&gt;&amp;nbsp;button:&amp;nbsp;&lt;/span&gt;&lt;span&gt;monthly-record-button&lt;/span&gt;&lt;/div&gt;&lt;/span&gt;&lt;p&gt;&lt;/p&gt;&lt;hr size=&quot;1&quot; style=&quot;text-align: justify&quot;&gt;&lt;p style=&quot;text-align: justify ; margin: 0px 0px 0px 4px&quot;&gt;+ onClickedDailyButton&lt;/p&gt;&lt;p style=&quot;text-align: justify ; margin: 0px 0px 0px 4px&quot;&gt;+ onClickedWeeklyButton&lt;/p&gt;&lt;p style=&quot;text-align: justify ; margin: 0px 0px 0px 4px&quot;&gt;+ onClickedMonthlyButton&lt;/p&gt;" style="verticalAlign=top;align=left;overflow=fill;fontSize=12;fontFamily=Helvetica;html=1;rounded=0;shadow=0;comic=0;labelBackgroundColor=none;strokeWidth=1" vertex="1" parent="1">
          <mxGeometry x="300" y="-822" width="250" height="252" as="geometry" />
        </mxCell>
        <mxCell id="cRFOei0-KnDXG4o8W320-2" value="&lt;p style=&quot;margin: 0px ; margin-top: 4px ; text-align: center&quot;&gt;&lt;b&gt;Main&lt;/b&gt;&lt;/p&gt;&lt;p style=&quot;margin: 0px ; margin-top: 4px ; text-align: center&quot;&gt;/main&lt;/p&gt;&lt;hr size=&quot;1&quot;&gt;&lt;p style=&quot;margin: 0px ; margin-left: 4px&quot;&gt;&lt;span&gt;&amp;lt;Header/&amp;gt;&lt;/span&gt;&lt;/p&gt;&lt;p style=&quot;margin: 0px ; margin-left: 4px&quot;&gt;&lt;span&gt;&amp;lt;MealList/&amp;gt;&lt;/span&gt;&lt;br&gt;&lt;/p&gt;&lt;p style=&quot;margin: 0px ; margin-left: 4px&quot;&gt;&amp;lt;PastNutritionInfo/&amp;gt;&lt;/p&gt;&lt;p style=&quot;margin: 0px ; margin-left: 4px&quot;&gt;button: skip-meal-button&lt;/p&gt;&lt;p style=&quot;margin: 0px ; margin-left: 4px&quot;&gt;button: not-followed-recommendation-button&lt;/p&gt;&lt;p style=&quot;margin: 0px 0px 0px 4px&quot;&gt;button: followed-recommendation-button&lt;/p&gt;&lt;p style=&quot;margin: 0px ; margin-left: 4px&quot;&gt;&lt;span&gt;button: record-snack-button&lt;/span&gt;&lt;br&gt;&lt;/p&gt;&lt;p style=&quot;margin: 0px 0px 0px 4px&quot;&gt;button: past-meal-record-button&lt;/p&gt;&lt;p style=&quot;margin: 0px 0px 0px 4px&quot;&gt;button: menu-recommendation-button&lt;/p&gt;&lt;p style=&quot;margin: 0px 0px 0px 4px&quot;&gt;button: nutrition-analysis-button&lt;/p&gt;&lt;p style=&quot;margin: 0px 0px 0px 4px&quot;&gt;&lt;span&gt;button: setting-button&lt;/span&gt;&lt;br&gt;&lt;/p&gt;&lt;hr size=&quot;1&quot;&gt;&lt;p style=&quot;margin: 0px ; margin-left: 4px&quot;&gt;+onClickedNotFollowedButton&lt;/p&gt;&lt;p style=&quot;margin: 0px ; margin-left: 4px&quot;&gt;+onClickedFollowedRecButton&lt;br&gt;&lt;/p&gt;&lt;p style=&quot;margin: 0px ; margin-left: 4px&quot;&gt;+onClickedFoodRecordButton&lt;/p&gt;&lt;p style=&quot;margin: 0px 0px 0px 4px&quot;&gt;+onClickedPastMealRecordButton&lt;/p&gt;&lt;p style=&quot;margin: 0px ; margin-left: 4px&quot;&gt;+onClickedMenuRecButton&lt;/p&gt;&lt;p style=&quot;margin: 0px ; margin-left: 4px&quot;&gt;+onClickedNutritionAnalysisButton&lt;/p&gt;&lt;p style=&quot;margin: 0px ; margin-left: 4px&quot;&gt;&lt;span&gt;+onClickedSettingsButton&lt;/span&gt;&lt;br&gt;&lt;/p&gt;" style="verticalAlign=top;align=left;overflow=fill;fontSize=12;fontFamily=Helvetica;html=1;rounded=0;shadow=0;comic=0;labelBackgroundColor=none;strokeWidth=1" vertex="1" parent="1">
          <mxGeometry x="300" y="-1160" width="250" height="324" as="geometry" />
        </mxCell>
        <mxCell id="cRFOei0-KnDXG4o8W320-3" value="&lt;p style=&quot;margin: 0px ; margin-top: 4px ; text-align: center&quot;&gt;&lt;b&gt;Login&lt;/b&gt;&lt;/p&gt;&lt;p style=&quot;margin: 0px ; margin-top: 4px ; text-align: center&quot;&gt;/login&lt;/p&gt;&lt;hr size=&quot;1&quot;&gt;&lt;p style=&quot;margin: 0px ; margin-left: 4px&quot;&gt;input: username-input&lt;/p&gt;&lt;p style=&quot;margin: 0px ; margin-left: 4px&quot;&gt;input: password-input&lt;/p&gt;&lt;p style=&quot;margin: 0px ; margin-left: 4px&quot;&gt;button: submit-button&lt;/p&gt;&lt;p style=&quot;margin: 0px ; margin-left: 4px&quot;&gt;button: signup-button&lt;/p&gt;&lt;hr size=&quot;1&quot;&gt;&lt;p style=&quot;margin: 0px ; margin-left: 4px&quot;&gt;+ onClickedSignInButton&lt;/p&gt;&lt;p style=&quot;margin: 0px ; margin-left: 4px&quot;&gt;+ onClickedSignUpButton&lt;/p&gt;" style="verticalAlign=top;align=left;overflow=fill;fontSize=12;fontFamily=Helvetica;html=1;rounded=0;shadow=0;comic=0;labelBackgroundColor=none;strokeWidth=1" vertex="1" parent="1">
          <mxGeometry x="40" y="-1160" width="250" height="160" as="geometry" />
        </mxCell>
        <mxCell id="cRFOei0-KnDXG4o8W320-4" value="&lt;p style=&quot;margin: 0px ; margin-top: 4px ; text-align: center&quot;&gt;&lt;b&gt;Food Record&lt;/b&gt;&lt;/p&gt;&lt;p style=&quot;margin: 0px ; margin-top: 4px ; text-align: center&quot;&gt;/record&lt;/p&gt;&lt;hr size=&quot;1&quot;&gt;&lt;p style=&quot;margin: 0px ; margin-left: 4px&quot;&gt;&lt;span&gt;&amp;lt;Header/&amp;gt;&lt;/span&gt;&lt;/p&gt;&lt;p style=&quot;margin: 0px ; margin-left: 4px&quot;&gt;&lt;span&gt;input: meal-photo&lt;/span&gt;&lt;/p&gt;&lt;p style=&quot;margin: 0px ; margin-left: 4px&quot;&gt;&lt;span&gt;div: meal-photo-preview&lt;/span&gt;&lt;/p&gt;&lt;p style=&quot;margin: 0px ; margin-left: 4px&quot;&gt;&lt;span&gt;button: upload-photo-button&lt;/span&gt;&lt;/p&gt;&lt;hr size=&quot;1&quot;&gt;&lt;p style=&quot;margin: 0px ; margin-left: 4px&quot;&gt;&lt;span&gt;+onClickedUploadPhotoButton&lt;/span&gt;&lt;br&gt;&lt;/p&gt;&lt;p style=&quot;margin: 0px ; margin-left: 4px&quot;&gt;&lt;br&gt;&lt;/p&gt;" style="verticalAlign=top;align=left;overflow=fill;fontSize=12;fontFamily=Helvetica;html=1;rounded=0;shadow=0;comic=0;labelBackgroundColor=none;strokeWidth=1" vertex="1" parent="1">
          <mxGeometry x="560" y="-1160" width="250" height="149" as="geometry" />
        </mxCell>
        <mxCell id="cRFOei0-KnDXG4o8W320-5" value="&lt;p style=&quot;margin: 0px ; margin-top: 4px ; text-align: center&quot;&gt;&lt;b&gt;Past Meal Record&lt;/b&gt;&lt;/p&gt;&lt;p style=&quot;margin: 0px ; margin-top: 4px ; text-align: center&quot;&gt;/history&lt;/p&gt;&lt;hr size=&quot;1&quot;&gt;&lt;p style=&quot;margin: 0px 0px 0px 4px&quot;&gt;&amp;lt;Header/&amp;gt;&lt;/p&gt;&lt;p style=&quot;margin: 0px 0px 0px 4px&quot;&gt;button: food-record-button&lt;/p&gt;&lt;p style=&quot;margin: 0px 0px 0px 4px&quot;&gt;&amp;lt;Records/&amp;gt;&lt;/p&gt;&lt;hr size=&quot;1&quot;&gt;&lt;p style=&quot;margin: 0px ; margin-left: 4px&quot;&gt;+onClickedFoodRecordButton&lt;/p&gt;" style="verticalAlign=top;align=left;overflow=fill;fontSize=12;fontFamily=Helvetica;html=1;rounded=0;shadow=0;comic=0;labelBackgroundColor=none;strokeWidth=1" vertex="1" parent="1">
          <mxGeometry x="560" y="-1000" width="250" height="120" as="geometry" />
        </mxCell>
        <mxCell id="cRFOei0-KnDXG4o8W320-6" value="&lt;p style=&quot;margin: 4px 0px 0px ; text-align: center&quot;&gt;&lt;b style=&quot;font-family: &amp;#34;verdana&amp;#34; ; font-size: 10px&quot;&gt;Sign up&lt;/b&gt;&lt;br style=&quot;font-family: &amp;#34;verdana&amp;#34; ; font-size: 10px&quot;&gt;&lt;span style=&quot;font-family: &amp;#34;verdana&amp;#34; ; font-size: 10px&quot;&gt;/signup&lt;/span&gt;&lt;br&gt;&lt;/p&gt;&lt;hr size=&quot;1&quot;&gt;&lt;p style=&quot;text-align: justify ; margin: 0px 0px 0px 4px&quot;&gt;&amp;lt;Header /&amp;gt;&lt;/p&gt;&lt;p style=&quot;text-align: justify ; margin: 0px 0px 0px 4px&quot;&gt;&lt;br&gt;&lt;/p&gt;&lt;p style=&quot;text-align: justify ; margin: 0px 0px 0px 4px&quot;&gt;h1: Sign up Page&lt;/p&gt;&lt;p style=&quot;text-align: justify ; margin: 0px 0px 0px 4px&quot;&gt;input: username-input&lt;/p&gt;&lt;p style=&quot;text-align: justify ; margin: 0px 0px 0px 4px&quot;&gt;input: password-input&lt;/p&gt;&lt;p style=&quot;text-align: justify ; margin: 0px 0px 0px 4px&quot;&gt;button: check-username-button&lt;/p&gt;&lt;p style=&quot;text-align: justify ; margin: 0px 0px 0px 4px&quot;&gt;button: register-button&lt;/p&gt;&lt;p style=&quot;text-align: justify ; margin: 0px 0px 0px 4px&quot;&gt;button: login-page-button&lt;/p&gt;&lt;hr size=&quot;1&quot; style=&quot;text-align: justify&quot;&gt;&lt;p style=&quot;text-align: justify ; margin: 4px 0px 0px&quot;&gt;&lt;span&gt;&amp;nbsp;+onChangedUsernameInput&lt;/span&gt;&lt;br&gt;&lt;/p&gt;&lt;p style=&quot;text-align: justify ; margin: 4px 0px 0px&quot;&gt;&lt;span&gt;&amp;nbsp;+onChangedPasswdInput&lt;/span&gt;&lt;/p&gt;&lt;p style=&quot;text-align: justify ; margin: 0px 0px 0px 4px&quot;&gt;+onClickedCheckUsernameButton&lt;/p&gt;&lt;p style=&quot;text-align: justify ; margin: 0px 0px 0px 4px&quot;&gt;+onClickedRegisterButton&lt;/p&gt;&lt;p style=&quot;text-align: justify ; margin: 0px 0px 0px 4px&quot;&gt;+onClickedLoginPageButton&lt;/p&gt;" style="verticalAlign=top;align=left;overflow=fill;fontSize=12;fontFamily=Helvetica;html=1;" vertex="1" parent="1">
          <mxGeometry x="40" y="-990" width="252.5" height="260" as="geometry" />
        </mxCell>
        <mxCell id="cRFOei0-KnDXG4o8W320-7" value="&lt;p style=&quot;margin: 4px 0px 0px ; text-align: center&quot;&gt;&lt;b style=&quot;font-family: &amp;#34;verdana&amp;#34; ; font-size: 10px&quot;&gt;Setting&lt;/b&gt;&lt;br style=&quot;font-family: &amp;#34;verdana&amp;#34; ; font-size: 10px&quot;&gt;&lt;span style=&quot;font-family: &amp;#34;verdana&amp;#34; ; font-size: 10px&quot;&gt;/setting&lt;/span&gt;&lt;br&gt;&lt;/p&gt;&lt;hr size=&quot;1&quot;&gt;&lt;p style=&quot;margin: 0px 0px 0px 4px&quot;&gt;&amp;lt;Header /&amp;gt;&lt;br&gt;&lt;/p&gt;&lt;p style=&quot;margin: 0px 0px 0px 4px&quot;&gt;&lt;br&gt;&lt;/p&gt;&lt;p style=&quot;margin: 0px 0px 0px 4px&quot;&gt;h1: Setting Page&lt;/p&gt;&lt;p style=&quot;margin: 0px 0px 0px 4px&quot;&gt;div: current-setting-info&lt;/p&gt;&lt;p style=&quot;margin: 0px 0px 0px 4px&quot;&gt;input: user-sex-input&lt;/p&gt;&lt;p style=&quot;margin: 0px 0px 0px 4px&quot;&gt;input: user-age-input&lt;/p&gt;&lt;p style=&quot;margin: 0px 0px 0px 4px&quot;&gt;input: user-height-input&lt;/p&gt;&lt;p style=&quot;margin: 0px 0px 0px 4px&quot;&gt;input: user-weight-input&lt;/p&gt;&lt;p style=&quot;margin: 0px 0px 0px 4px&quot;&gt;input: user-food-no-eat-input&lt;br&gt;&lt;/p&gt;&lt;p style=&quot;margin: 0px 0px 0px 4px&quot;&gt;button: user-food-no-eat-button&lt;/p&gt;&lt;p style=&quot;margin: 0px 0px 0px 4px&quot;&gt;button: confirm-button&lt;br&gt;&lt;/p&gt;&lt;p style=&quot;margin: 0px 0px 0px 4px&quot;&gt;button: delete-account-button&lt;/p&gt;&lt;hr size=&quot;1&quot;&gt;&lt;p style=&quot;margin: 0px 0px 0px 4px&quot;&gt;+ onChangedUserSexInput&lt;/p&gt;&lt;p style=&quot;margin: 0px 0px 0px 4px&quot;&gt;+ onChangedUserAgedInput&lt;/p&gt;&lt;p style=&quot;margin: 0px 0px 0px 4px&quot;&gt;+ onChangedUserHeightInput&lt;/p&gt;&lt;p style=&quot;margin: 0px 0px 0px 4px&quot;&gt;+ onChangedUserWeightInput&lt;/p&gt;&lt;p style=&quot;margin: 0px 0px 0px 4px&quot;&gt;+ onChangedUserFoodNoEatInput&lt;/p&gt;&lt;p style=&quot;margin: 0px 0px 0px 4px&quot;&gt;+ onClickedUserFoodNoEatButton&lt;/p&gt;&lt;p style=&quot;margin: 0px 0px 0px 4px&quot;&gt;+ onCllickedConfirmButton&lt;/p&gt;" style="verticalAlign=top;align=left;overflow=fill;fontSize=12;fontFamily=Helvetica;html=1;" vertex="1" parent="1">
          <mxGeometry x="42.5" y="-720" width="250" height="339" as="geometry" />
        </mxCell>
        <mxCell id="cRFOei0-KnDXG4o8W320-8" value="&lt;p style=&quot;margin: 0px ; margin-top: 4px ; text-align: center&quot;&gt;&lt;b&gt;Confirm Detection&amp;nbsp;&lt;/b&gt;&lt;/p&gt;&lt;p style=&quot;margin: 0px ; margin-top: 4px ; text-align: center&quot;&gt;/confirm&lt;b&gt;&amp;nbsp;&lt;/b&gt;&lt;/p&gt;&lt;hr size=&quot;1&quot;&gt;&lt;p style=&quot;margin: 0px ; margin-left: 4px&quot;&gt;&amp;lt;Header/&amp;gt;&lt;/p&gt;&lt;p style=&quot;margin: 0px ; margin-left: 4px&quot;&gt;&amp;lt;Record/&amp;gt;&lt;/p&gt;&lt;p style=&quot;margin: 0px ; margin-left: 4px&quot;&gt;&amp;lt;Nutrition/&amp;gt;&lt;/p&gt;&lt;p style=&quot;margin: 0px ; margin-left: 4px&quot;&gt;image: meal-image&lt;/p&gt;&lt;p style=&quot;margin: 0px ; margin-left: 4px&quot;&gt;input: meal-name-input&lt;/p&gt;&lt;p style=&quot;margin: 0px ; margin-left: 4px&quot;&gt;&lt;span&gt;button: confirm-button&lt;/span&gt;&lt;br&gt;&lt;/p&gt;&lt;p style=&quot;margin: 0px ; margin-left: 4px&quot;&gt;button: edit-result-button&lt;/p&gt;&lt;hr size=&quot;1&quot;&gt;&lt;p style=&quot;margin: 0px ; margin-left: 4px&quot;&gt;+onClickedConfirmButton&lt;/p&gt;&lt;p style=&quot;margin: 0px ; margin-left: 4px&quot;&gt;+onClickedEditResultButton&lt;/p&gt;&lt;p style=&quot;margin: 0px ; margin-left: 4px&quot;&gt;&lt;br&gt;&lt;/p&gt;&lt;p style=&quot;margin: 0px ; margin-left: 4px&quot;&gt;&lt;br&gt;&lt;/p&gt;" style="verticalAlign=top;align=left;overflow=fill;fontSize=12;fontFamily=Helvetica;html=1;" vertex="1" parent="1">
          <mxGeometry x="560" y="-870" width="250" height="199" as="geometry" />
        </mxCell>
        <mxCell id="cRFOei0-KnDXG4o8W320-9" value="&lt;p style=&quot;margin: 0px ; margin-top: 4px ; text-align: center&quot;&gt;&lt;b&gt;Menu Recommendation&lt;/b&gt;&lt;/p&gt;&lt;p style=&quot;margin: 0px ; margin-top: 4px ; text-align: center&quot;&gt;/recommendation&lt;/p&gt;&lt;hr size=&quot;1&quot;&gt;&lt;p style=&quot;margin: 0px 0px 0px 4px&quot;&gt;&amp;lt;Heaer/&amp;gt;&lt;/p&gt;&lt;p style=&quot;margin: 0px 0px 0px 4px&quot;&gt;h1: Today&#39;s Recommendation&lt;/p&gt;&lt;p style=&quot;margin: 0px 0px 0px 4px&quot;&gt;&amp;lt;MealList/&amp;gt;&lt;/p&gt;&lt;p style=&quot;margin: 0px 0px 0px 4px&quot;&gt;button:&amp;nbsp;other-meal-breakfast-button&lt;/p&gt;&lt;p style=&quot;margin: 0px 0px 0px 4px&quot;&gt;button: other-meal-lunch-button&lt;/p&gt;&lt;p style=&quot;margin: 0px 0px 0px 4px&quot;&gt;button: other-meal-dinner-button&lt;br&gt;&lt;/p&gt;&lt;hr size=&quot;1&quot;&gt;&lt;p style=&quot;margin: 0px 0px 0px 4px&quot;&gt;+ onClickBreakfastButton&lt;br&gt;+ onClickLunchButton&lt;/p&gt;&lt;p style=&quot;margin: 0px 0px 0px 4px&quot;&gt;+ onClickDinnerButton&lt;/p&gt;" style="verticalAlign=top;align=left;overflow=fill;fontSize=12;fontFamily=Helvetica;html=1;rounded=0;shadow=0;comic=0;labelBackgroundColor=none;strokeWidth=1" vertex="1" parent="1">
          <mxGeometry x="820" y="-1160" width="250" height="200" as="geometry" />
        </mxCell>
        <mxCell id="cRFOei0-KnDXG4o8W320-10" value="&lt;p style=&quot;margin: 0px ; margin-top: 4px ; text-align: center&quot;&gt;&lt;b&gt;Nutritional Info and Recipe&lt;/b&gt;&lt;/p&gt;&lt;p style=&quot;margin: 0px ; margin-top: 4px ; text-align: center&quot;&gt;/recommendation/:id&lt;/p&gt;&lt;hr size=&quot;1&quot;&gt;&lt;p style=&quot;margin: 0px 0px 0px 4px&quot;&gt;&amp;lt;Header/&amp;gt;&lt;/p&gt;&lt;p style=&quot;margin: 0px 0px 0px 4px&quot;&gt;h1: Nutritional Info and Recipe&lt;/p&gt;&lt;p style=&quot;margin: 0px 0px 0px 4px&quot;&gt;&amp;lt;Nutrition/&amp;gt;&lt;/p&gt;&lt;p style=&quot;margin: 0px 0px 0px 4px&quot;&gt;&amp;lt;Recipe/&amp;gt;&lt;/p&gt;&lt;p style=&quot;margin: 0px 0px 0px 4px&quot;&gt;button:&amp;nbsp;&amp;nbsp;&lt;span style=&quot;text-align: center&quot;&gt;menu-recommendation-button&lt;/span&gt;&lt;/p&gt;&lt;hr size=&quot;1&quot;&gt;&lt;p style=&quot;margin: 0px 0px 0px 4px&quot;&gt;+ onClickMenuRecommendationButton&lt;/p&gt;" style="verticalAlign=top;align=left;overflow=fill;fontSize=12;fontFamily=Helvetica;html=1;rounded=0;shadow=0;comic=0;labelBackgroundColor=none;strokeWidth=1" vertex="1" parent="1">
          <mxGeometry x="820" y="-800" width="250" height="160" as="geometry" />
        </mxCell>
        <mxCell id="cRFOei0-KnDXG4o8W320-11" value="&lt;p style=&quot;margin: 0px ; margin-top: 4px ; text-align: center&quot;&gt;&lt;b&gt;Previous meal&lt;/b&gt;&lt;/p&gt;&lt;p style=&quot;margin: 0px ; margin-top: 4px ; text-align: center&quot;&gt;/history/:id/&lt;b&gt;&amp;nbsp;&lt;/b&gt;&lt;/p&gt;&lt;hr size=&quot;1&quot;&gt;&lt;p style=&quot;margin: 0px ; margin-left: 4px&quot;&gt;&amp;lt;Header/&amp;gt;&lt;/p&gt;&lt;p style=&quot;margin: 0px ; margin-left: 4px&quot;&gt;&amp;lt;RecordDetail/&amp;gt;&lt;/p&gt;&lt;p style=&quot;margin: 0px ; margin-left: 4px&quot;&gt;&amp;lt;Review/&amp;gt;&lt;/p&gt;&lt;p style=&quot;margin: 0px ; margin-left: 4px&quot;&gt;button: back-to-records-button&lt;/p&gt;&lt;hr size=&quot;1&quot;&gt;&lt;p style=&quot;margin: 0px ; margin-left: 4px&quot;&gt;+ onClickRecordsButton&lt;/p&gt;" style="verticalAlign=top;align=left;overflow=fill;fontSize=12;fontFamily=Helvetica;html=1;" vertex="1" parent="1">
          <mxGeometry x="820" y="-952" width="250" height="142" as="geometry" />
        </mxCell>
        <mxCell id="cRFOei0-KnDXG4o8W320-12" value="&lt;p style=&quot;margin: 0px ; margin-top: 4px ; text-align: center&quot;&gt;&lt;b&gt;Create Review&lt;/b&gt;&lt;/p&gt;&lt;p style=&quot;margin: 0px ; margin-top: 4px ; text-align: center&quot;&gt;/review/:id&lt;/p&gt;&lt;hr size=&quot;1&quot;&gt;&lt;p style=&quot;margin: 0px ; margin-left: 4px&quot;&gt;&amp;lt;Header/&amp;gt;&lt;/p&gt;&lt;p style=&quot;margin: 0px ; margin-left: 4px&quot;&gt;h1: Create a review for your meal&lt;/p&gt;&lt;p style=&quot;margin: 0px ; margin-left: 4px&quot;&gt;text: If you don&#39;t want to write it now,&amp;nbsp;&lt;/p&gt;&lt;p style=&quot;margin: 0px ; margin-left: 4px&quot;&gt;you can always write your review :)&lt;/p&gt;&lt;p style=&quot;margin: 0px ; margin-left: 4px&quot;&gt;input: review-text&lt;/p&gt;&lt;p style=&quot;margin: 0px ; margin-left: 4px&quot;&gt;button: confirm-review&lt;/p&gt;&lt;p style=&quot;margin: 0px 0px 0px 4px&quot;&gt;button: not-now-review&lt;/p&gt;&lt;p style=&quot;margin: 0px 0px 0px 4px&quot;&gt;button: cancel-review&lt;br&gt;&lt;/p&gt;&lt;hr size=&quot;1&quot;&gt;&lt;p style=&quot;margin: 0px ; margin-left: 4px&quot;&gt;+ onClickConfirmReviewButton&lt;br&gt;+ onClickNotNowButton&lt;/p&gt;&lt;p style=&quot;margin: 0px ; margin-left: 4px&quot;&gt;+ onClickCancelReviewButton&lt;/p&gt;" style="verticalAlign=top;align=left;overflow=fill;fontSize=12;fontFamily=Helvetica;html=1;rounded=0;shadow=0;comic=0;labelBackgroundColor=none;strokeWidth=1" vertex="1" parent="1">
          <mxGeometry x="560" y="-660" width="250" height="230" as="geometry" />
        </mxCell>
      </root>
    </mxGraphModel>
  </diagram>
</mxfile>
